# xmcd CD database file
#
# Track frame offsets:
#	150
#	55265
#	99445
#	169416
#	246973
#	258799
#	267265
#	309596
#
# Disc length: 4713 seconds
#
# Revision: 1
# Processed by: cddbd v1.5.2PL0 Copyright (c) Steve Scherf et al.
# Submitted via: CDex 1.81
#
DISCID=69126708
DTITLE=Miles Davis - Milestones of a Jazz Legend [CD 9)
DYEAR=1961
DGENRE=Jazz
TTITLE0=Walkin' (Carpenter)
TTITLE1=Bye Bye Blackbird (Dixon - Henderson)
TTITLE2=All Of You (Porter)
TTITLE3=No Blues (Davis)
TTITLE4=Bye Bye (Theme) (Davis)
TTITLE5=Love, I've Found You (Small - Moore)
TTITLE6=So What (Davis)
TTITLE7=Freddy Freeloader (Davis)
EXTD=YEAR: 1961
EXTT0=
EXTT1=
EXTT2=
EXTT3=
EXTT4=
EXTT5=
EXTT6=
EXTT7=
PLAYORDER=
